<?xml version="1.0" encoding="UTF-8"?>
<svg id="Layer_2" data-name="Layer 2" xmlns="http://www.w3.org/2000/svg" viewBox="0 0 87.36 87.35">
  <defs>
    <style>
      .cls-1 {
        fill: none;
      }

      .cls-2 {
        fill: #231f20;
      }

      .cls-3 {
        fill: #fff;
      }
    </style>
  </defs>
  <g id="GFX">
    <g>
      <g>
        <ellipse class="cls-2" cx="43.68" cy="43.67" rx="30.61" ry="30.6"/>
        <path class="cls-3" d="M43.37,40.46c-1.44-4.79-5.89-8.29-11.14-8.29-6.42,0-11.64,5.22-11.64,11.63s5.22,11.63,11.64,11.63c5.82,0,10.65-4.29,11.49-9.87h6.29v6.35h5.1v-6.35h6.56v8.23h5.1v-13.33h-23.4ZM32.23,50.33c-3.6,0-6.54-2.93-6.54-6.54s2.93-6.54,6.54-6.54,6.54,2.94,6.54,6.54-2.93,6.54-6.54,6.54Z"/>
      </g>
      <circle class="cls-1" cx="6.54" cy="6.54" r="6.54"/>
      <circle class="cls-1" cx="80.83" cy="80.81" r="6.54"/>
    </g>
  </g>
</svg>