<?xml version="1.0" encoding="UTF-8"?>
<svg id="Layer_3" data-name="Layer 3" xmlns="http://www.w3.org/2000/svg" xmlns:xlink="http://www.w3.org/1999/xlink" viewBox="0 0 236.82 86.5">
  <defs>
    <style>
      .cls-1 {
        fill: none;
      }

      .cls-2 {
        fill: #e62c27;
      }

      .cls-3 {
        fill: #fff;
      }
    </style>
    <symbol id="Full_Circle-Landscape" data-name="Full Circle-Landscape" viewBox="0 0 308.37 112.68">
      <g>
        <circle class="cls-1" cx="8.51" cy="8.51" r="8.51"/>
        <circle class="cls-1" cx="299.86" cy="104.17" r="8.51"/>
        <g>
          <g>
            <polygon points="121.76 45.87 121.76 55.07 133.05 55.07 133.05 61.38 121.76 61.38 121.76 70.58 114.92 70.58 114.92 39.56 135.74 39.56 135.74 45.87 121.76 45.87"/>
            <path d="M154.89,39.56h-5.66l-13.41,31.03h7.54l2.9-7.5h11.41l3.01,7.5h7.72l-13.5-31.03ZM148.7,56.78l3.17-8.19,3.28,8.19h-6.45Z"/>
            <path d="M197.06,65.98c-1.32,1.84-2.98,3.2-5,4.07-2.02.88-4.09,1.32-6.23,1.32-2.43,0-4.66-.38-6.7-1.14-2.04-.76-3.82-1.85-5.3-3.27-1.49-1.41-2.65-3.13-3.48-5.15-.84-2.02-1.26-4.26-1.26-6.74s.42-4.73,1.26-6.75c.83-2.02,1.99-3.73,3.48-5.15,1.49-1.41,3.26-2.5,5.3-3.26,2.04-.76,4.28-1.14,6.7-1.14.88,0,1.79.08,2.74.24.96.16,1.89.42,2.81.77.92.35,1.81.82,2.65,1.4.84.58,1.6,1.3,2.28,2.15l-5.26,4.3c-.67-.82-1.5-1.45-2.48-1.89-.98-.44-2.11-.66-3.39-.66s-2.48.26-3.57.75c-1.09.5-2.05,1.19-2.85,2.08-.81.89-1.43,1.95-1.89,3.18-.45,1.22-.67,2.55-.67,3.99s.22,2.8.67,4.01c.45,1.21,1.07,2.27,1.87,3.15.79.9,1.71,1.59,2.78,2.09,1.07.5,2.21.75,3.44.75,1.4,0,2.65-.29,3.72-.88,1.08-.58,1.98-1.4,2.68-2.45l5.7,4.25Z"/>
            <polygon points="224.44 39.56 224.44 45.61 215.58 45.61 215.58 70.58 208.74 70.58 208.74 45.61 199.89 45.61 199.89 39.56 224.44 39.56"/>
            <path d="M258.61,48.32c-.83-2.02-1.99-3.73-3.48-5.15-1.49-1.41-3.26-2.5-5.3-3.26-2.05-.76-4.29-1.14-6.7-1.14s-4.67.38-6.71,1.14c-2.04.76-3.81,1.85-5.3,3.26-1.49,1.42-2.65,3.14-3.48,5.15-.83,2.02-1.25,4.27-1.25,6.75s.42,4.73,1.25,6.74c.83,2.02,1.99,3.73,3.48,5.15,1.49,1.42,3.26,2.51,5.3,3.27,2.04.76,4.28,1.14,6.71,1.14s4.66-.38,6.7-1.14c2.04-.76,3.81-1.85,5.3-3.27,1.49-1.41,2.65-3.13,3.48-5.15.83-2.02,1.25-4.26,1.25-6.74s-.42-4.73-1.25-6.75ZM252.08,59.08c-.46,1.21-1.11,2.27-1.95,3.15-.85.9-1.87,1.59-3.05,2.09-1.18.5-2.51.75-3.96.75s-2.79-.25-3.97-.75c-1.18-.5-2.2-1.19-3.04-2.09-.85-.88-1.51-1.94-1.95-3.15-.46-1.21-.69-2.55-.69-4.01s.23-2.76.69-3.99c.45-1.23,1.1-2.29,1.95-3.18.84-.89,1.86-1.58,3.04-2.08,1.19-.49,2.51-.75,3.97-.75s2.78.26,3.96.75c1.19.5,2.2,1.19,3.05,2.08.84.89,1.49,1.95,1.95,3.18.45,1.22.67,2.55.67,3.99s-.23,2.8-.67,4.01Z"/>
            <path d="M284.81,59.71c3.08-1.92,5.13-5.35,5.13-9.25,0-6.02-4.89-10.91-10.91-10.91h-13.88s0,31.02,0,31.02h6.84v-9.2h6.35l4.82,9.21h8.2l-6.54-10.87ZM271.98,55.59v-10.25h5.98c2.83,0,5.13,2.3,5.13,5.13s-2.3,5.13-5.13,5.13h-1.94s-4.03,0-4.03,0Z"/>
          </g>
          <g>
            <ellipse class="cls-2" cx="54.28" cy="54.27" rx="37.26" ry="37.25"/>
            <path class="cls-3" d="M53.9,50.36c-1.75-5.83-7.17-10.09-13.56-10.09-7.81,0-14.17,6.35-14.17,14.15s6.36,14.16,14.17,14.16c7.08,0,12.96-5.22,13.99-12.02h7.66v7.73h6.21v-7.73h7.99v10.02h6.21v-16.22h-28.49ZM40.34,62.38c-4.39,0-7.96-3.57-7.96-7.96s3.57-7.96,7.96-7.96,7.96,3.57,7.96,7.96-3.57,7.96-7.96,7.96Z"/>
          </g>
        </g>
      </g>
    </symbol>
  </defs>
  <g id="GFX">
    <use width="308.37" height="112.68" transform="scale(.77)" xlink:href="#Full_Circle-Landscape"/>
  </g>
</svg>