<?xml version="1.0" encoding="UTF-8"?>
<svg id="Layer_2" data-name="Layer 2" xmlns="http://www.w3.org/2000/svg" viewBox="0 0 236.82 86.5">
  <defs>
    <style>
      .cls-1 {
        fill: none;
      }

      .cls-2 {
        fill: #fff;
      }
    </style>
  </defs>
  <g id="GFX">
    <g>
      <circle class="cls-1" cx="6.54" cy="6.53" r="6.54"/>
      <circle class="cls-1" cx="230.29" cy="79.97" r="6.54"/>
      <g>
        <g>
          <polygon class="cls-2" points="93.51 35.21 93.51 42.28 102.18 42.28 102.18 47.12 93.51 47.12 93.51 54.19 88.26 54.19 88.26 30.37 104.25 30.37 104.25 35.21 93.51 35.21"/>
          <path class="cls-2" d="M118.96,30.37h-4.34l-10.3,23.82h5.79l2.23-5.76h8.76l2.31,5.76h5.93l-10.37-23.82ZM114.2,43.59l2.43-6.29,2.52,6.29h-4.95Z"/>
          <path class="cls-2" d="M151.34,50.65c-1.01,1.41-2.29,2.46-3.84,3.13-1.55.68-3.14,1.01-4.78,1.01-1.87,0-3.58-.29-5.15-.87-1.57-.58-2.93-1.42-4.07-2.51-1.15-1.09-2.04-2.4-2.68-3.95-.64-1.55-.97-3.27-.97-5.18s.32-3.63.97-5.18c.64-1.55,1.53-2.87,2.68-3.96,1.14-1.09,2.5-1.92,4.07-2.5,1.57-.58,3.28-.87,5.15-.87.67,0,1.38.06,2.1.18.73.13,1.45.32,2.16.59.7.27,1.39.63,2.04,1.08.65.45,1.23,1,1.75,1.65l-4.04,3.3c-.52-.63-1.15-1.11-1.91-1.45-.75-.34-1.62-.51-2.6-.51s-1.91.2-2.75.57c-.84.39-1.57.91-2.19,1.6-.62.68-1.1,1.5-1.45,2.44-.35.94-.52,1.96-.52,3.06s.17,2.15.52,3.08c.35.93.82,1.74,1.43,2.42.6.69,1.31,1.22,2.14,1.6.82.38,1.7.57,2.64.57,1.08,0,2.03-.23,2.86-.68.83-.45,1.52-1.08,2.06-1.88l4.37,3.26Z"/>
          <polygon class="cls-2" points="172.37 30.37 172.37 35.01 165.56 35.01 165.56 54.19 160.31 54.19 160.31 35.01 153.51 35.01 153.51 30.37 172.37 30.37"/>
          <path class="cls-2" d="M198.6,37.1c-.64-1.55-1.53-2.87-2.68-3.96-1.15-1.09-2.5-1.92-4.07-2.5-1.57-.58-3.29-.87-5.15-.87s-3.59.29-5.15.87c-1.57.58-2.93,1.42-4.07,2.5-1.15,1.09-2.04,2.41-2.68,3.96-.64,1.55-.96,3.28-.96,5.18s.32,3.63.96,5.18c.64,1.55,1.53,2.87,2.68,3.95,1.15,1.09,2.5,1.93,4.07,2.51,1.57.58,3.29.87,5.15.87s3.58-.29,5.15-.87c1.57-.58,2.93-1.42,4.07-2.51,1.15-1.09,2.04-2.4,2.68-3.95.64-1.55.96-3.27.96-5.18s-.32-3.63-.96-5.18ZM193.59,45.35c-.35.93-.85,1.74-1.5,2.42-.65.69-1.43,1.22-2.34,1.6-.91.38-1.93.57-3.04.57s-2.14-.19-3.05-.57c-.91-.38-1.69-.91-2.33-1.6-.65-.68-1.16-1.49-1.5-2.42-.35-.93-.53-1.96-.53-3.08s.18-2.12.53-3.06c.34-.94.84-1.76,1.5-2.44.64-.68,1.43-1.21,2.33-1.6.91-.38,1.93-.57,3.05-.57s2.14.2,3.04.57c.91.39,1.69.91,2.34,1.6.65.68,1.15,1.5,1.5,2.44.34.94.52,1.96.52,3.06s-.18,2.15-.52,3.08Z"/>
          <path class="cls-2" d="M218.73,45.84c2.36-1.48,3.94-4.11,3.94-7.1,0-4.62-3.76-8.38-8.38-8.38h-10.66s0,23.81,0,23.81h5.25v-7.06h4.88l3.7,7.07h6.3l-5.02-8.34ZM208.88,42.68v-7.87h4.59c2.18,0,3.94,1.76,3.94,3.94s-1.77,3.94-3.94,3.94h-1.49s-3.1,0-3.1,0Z"/>
        </g>
        <g>
          <ellipse class="cls-2" cx="41.69" cy="41.66" rx="28.61" ry="28.6"/>
          <path d="M41.4,38.66c-1.34-4.48-5.5-7.75-10.41-7.75-6,0-10.88,4.88-10.88,10.87s4.88,10.87,10.88,10.87c5.44,0,9.95-4.01,10.74-9.23h5.88v5.93h4.77v-5.93h6.13v7.69h4.77v-12.45h-21.88ZM30.98,47.89c-3.37,0-6.11-2.74-6.11-6.11s2.74-6.11,6.11-6.11,6.11,2.74,6.11,6.11-2.74,6.11-6.11,6.11Z"/>
        </g>
      </g>
    </g>
  </g>
</svg>