<?xml version="1.0" encoding="UTF-8"?>
<svg id="Layer_3" data-name="Layer 3" xmlns="http://www.w3.org/2000/svg" xmlns:xlink="http://www.w3.org/1999/xlink" viewBox="0 0 227.53 50.64">
  <defs>
    <style>
      .cls-1 {
        fill: none;
      }

      .cls-2 {
        fill: #e62c27;
      }

      .cls-3 {
        fill: #1a1a1a;
      }
    </style>
    <symbol id="Full-Landscape" viewBox="0 0 227.53 50.64">
      <g>
        <circle class="cls-1" cx="6.54" cy="6.54" r="6.54"/>
        <circle class="cls-1" cx="221" cy="44.1" r="6.54"/>
        <g>
          <path class="cls-2" d="M36.73,21.95c-1.49-4.97-6.11-8.61-11.57-8.61-6.66,0-12.08,5.42-12.08,12.08s5.42,12.08,12.08,12.08c6.04,0,11.06-4.45,11.94-10.25h6.54v6.59h5.29v-6.59h6.81v8.54h5.3v-13.84h-24.31ZM25.16,32.21c-3.74,0-6.78-3.04-6.78-6.79s3.04-6.79,6.78-6.79,6.79,3.05,6.79,6.79-3.04,6.79-6.79,6.79Z"/>
          <g>
            <polygon class="cls-3" points="84.24 18.52 84.24 25.59 92.91 25.59 92.91 30.43 84.24 30.43 84.24 37.5 78.99 37.5 78.99 13.68 94.98 13.68 94.98 18.52 84.24 18.52"/>
            <path class="cls-3" d="M109.68,13.68h-4.34l-10.3,23.82h5.79l2.23-5.76h8.75l2.31,5.76h5.93l-10.37-23.82ZM104.93,26.9l2.43-6.29,2.52,6.29h-4.95Z"/>
            <path class="cls-3" d="M142.06,33.97c-1.01,1.41-2.29,2.45-3.84,3.12-1.55.68-3.14,1.01-4.78,1.01-1.86,0-3.58-.29-5.15-.87-1.56-.58-2.93-1.42-4.07-2.51s-2.03-2.4-2.67-3.95c-.65-1.55-.97-3.27-.97-5.18s.32-3.63.97-5.18c.64-1.55,1.53-2.87,2.67-3.96,1.14-1.09,2.51-1.92,4.07-2.5,1.57-.59,3.29-.88,5.15-.88.68,0,1.38.06,2.1.18.74.13,1.45.32,2.16.6.7.26,1.39.62,2.04,1.07.65.45,1.23,1,1.75,1.65l-4.04,3.3c-.52-.63-1.15-1.11-1.91-1.45-.75-.34-1.62-.51-2.6-.51s-1.91.2-2.75.58c-.84.38-1.57.91-2.18,1.6-.62.68-1.1,1.49-1.45,2.44-.35.94-.52,1.96-.52,3.06s.17,2.15.52,3.08c.35.93.82,1.74,1.43,2.42.61.68,1.31,1.22,2.14,1.6.82.38,1.7.57,2.64.57,1.08,0,2.03-.22,2.86-.68.83-.44,1.52-1.07,2.06-1.88l4.37,3.27Z"/>
            <polygon class="cls-3" points="163.08 13.68 163.08 18.32 156.28 18.32 156.28 37.5 151.03 37.5 151.03 18.32 144.23 18.32 144.23 13.68 163.08 13.68"/>
            <path class="cls-3" d="M189.32,20.41c-.64-1.55-1.53-2.87-2.68-3.96-1.14-1.09-2.5-1.92-4.07-2.5-1.57-.59-3.29-.88-5.15-.88s-3.58.29-5.15.88c-1.57.58-2.93,1.41-4.07,2.5-1.15,1.09-2.04,2.41-2.68,3.96s-.96,3.28-.96,5.18.32,3.63.96,5.18,1.53,2.86,2.68,3.95c1.14,1.09,2.5,1.93,4.07,2.51s3.29.87,5.15.87,3.58-.29,5.15-.87,2.93-1.42,4.07-2.51c1.15-1.09,2.04-2.4,2.68-3.95s.96-3.27.96-5.18-.32-3.63-.96-5.18ZM184.3,28.67c-.35.93-.84,1.74-1.49,2.42-.66.68-1.44,1.22-2.35,1.6-.9.38-1.92.57-3.04.57s-2.14-.19-3.05-.57c-.9-.38-1.69-.92-2.33-1.6-.66-.68-1.16-1.49-1.5-2.42-.35-.93-.53-1.96-.53-3.08s.18-2.12.53-3.06c.34-.95.84-1.76,1.5-2.44.64-.69,1.43-1.22,2.33-1.6.91-.38,1.93-.58,3.05-.58s2.14.2,3.04.58c.91.38,1.69.91,2.35,1.6.65.68,1.14,1.49,1.49,2.44.35.94.52,1.96.52,3.06s-.17,2.15-.52,3.08Z"/>
            <path class="cls-3" d="M209.44,29.15c2.36-1.47,3.93-4.1,3.93-7.09,0-4.63-3.75-8.38-8.38-8.38h-10.66s0,23.82,0,23.82h5.26v-7.07h4.88l3.7,7.07h6.29l-5.02-8.35ZM204.18,25.99h-4.59v-7.88h4.59c2.18,0,3.94,1.77,3.94,3.95s-1.76,3.93-3.94,3.93Z"/>
          </g>
        </g>
      </g>
    </symbol>
  </defs>
  <g id="GFX">
    <use width="227.53" height="50.64" xlink:href="#Full-Landscape"/>
  </g>
</svg>