<?xml version="1.0" encoding="UTF-8"?>
<svg id="Layer_2" data-name="Layer 2" xmlns="http://www.w3.org/2000/svg" viewBox="0 0 160.57 127.69">
  <defs>
    <style>
      .cls-1 {
        fill: none;
      }

      .cls-2 {
        fill: #fff;
      }
    </style>
  </defs>
  <g id="GFX">
    <g>
      <g>
        <g>
          <polygon class="cls-2" points="17.81 95.56 17.81 102.63 26.48 102.63 26.48 107.46 17.81 107.46 17.81 114.53 12.56 114.53 12.56 90.71 28.55 90.71 28.55 95.56 17.81 95.56"/>
          <path class="cls-2" d="M43.25,90.71h-4.34l-10.3,23.82h5.79l2.22-5.76h8.75l2.31,5.76h5.93l-10.36-23.82ZM38.49,103.93l2.44-6.28,2.51,6.28h-4.95Z"/>
          <path class="cls-2" d="M75.62,111c-1.01,1.41-2.29,2.46-3.84,3.12-1.55.68-3.14,1.01-4.78,1.01-1.87,0-3.58-.29-5.15-.88-1.57-.58-2.93-1.42-4.07-2.51-1.15-1.09-2.03-2.4-2.67-3.95-.65-1.55-.97-3.27-.97-5.17s.32-3.63.97-5.19c.64-1.55,1.52-2.86,2.67-3.95,1.14-1.08,2.5-1.92,4.07-2.5,1.57-.59,3.28-.88,5.15-.88.67,0,1.38.06,2.1.18.73.12,1.45.32,2.16.59.7.27,1.39.63,2.03,1.08.65.44,1.23.99,1.74,1.65l-4.03,3.3c-.52-.63-1.15-1.11-1.9-1.45s-1.62-.51-2.61-.51-1.9.2-2.74.57c-.85.39-1.58.92-2.19,1.6-.62.69-1.1,1.5-1.45,2.45-.35.94-.52,1.96-.52,3.06s.17,2.14.52,3.08c.34.93.82,1.74,1.43,2.41.6.69,1.31,1.22,2.13,1.6.82.39,1.7.58,2.64.58,1.07,0,2.03-.23,2.86-.68.83-.45,1.52-1.08,2.06-1.88l4.37,3.26Z"/>
          <polygon class="cls-2" points="96.64 90.71 96.64 95.36 89.84 95.36 89.84 114.53 84.59 114.53 84.59 95.36 77.79 95.36 77.79 90.71 96.64 90.71"/>
          <path class="cls-2" d="M122.87,97.44c-.64-1.55-1.53-2.86-2.67-3.95-1.15-1.08-2.51-1.92-4.08-2.5-1.57-.59-3.29-.88-5.14-.88s-3.59.29-5.16.88c-1.56.58-2.93,1.42-4.07,2.5-1.14,1.09-2.03,2.41-2.67,3.95-.64,1.55-.96,3.28-.96,5.19s.32,3.63.96,5.17c.64,1.55,1.53,2.86,2.67,3.95s2.51,1.93,4.07,2.51c1.57.59,3.29.88,5.16.88s3.57-.29,5.14-.88c1.57-.58,2.93-1.42,4.08-2.51,1.14-1.09,2.03-2.4,2.67-3.95.64-1.55.96-3.27.96-5.17s-.32-3.63-.96-5.19ZM117.86,105.7c-.35.93-.85,1.74-1.5,2.41-.65.69-1.43,1.22-2.34,1.6-.91.39-1.93.58-3.04.58s-2.14-.19-3.05-.58c-.91-.38-1.68-.91-2.33-1.6-.66-.68-1.16-1.49-1.5-2.41-.35-.94-.53-1.96-.53-3.08s.18-2.13.53-3.06c.34-.94.85-1.76,1.5-2.45.65-.68,1.42-1.21,2.33-1.6.91-.37,1.93-.57,3.05-.57s2.13.2,3.04.57c.91.39,1.69.92,2.34,1.6.66.69,1.15,1.5,1.5,2.45.34.94.52,1.96.52,3.06s-.18,2.14-.52,3.08Z"/>
          <path class="cls-2" d="M142.98,106.19c2.36-1.48,3.94-4.11,3.94-7.1,0-4.62-3.76-8.38-8.38-8.38h-10.66s0,23.81,0,23.81h5.26v-7.06h4.88l3.69,7.07h6.3l-5.03-8.34ZM137.72,103.03h-1.49s-3.09,0-3.09,0v-7.87h4.59c2.18,0,3.95,1.76,3.95,3.94s-1.77,3.94-3.95,3.94Z"/>
        </g>
        <g>
          <ellipse class="cls-2" cx="80.28" cy="42.92" rx="30.37" ry="30.36"/>
          <path d="M79.98,39.72c-1.37-4.58-5.62-7.92-10.64-7.92-6.13,0-11.12,4.99-11.12,11.11s4.99,11.11,11.12,11.11c5.56,0,10.17-4.1,10.98-9.43h6.01v6.07h4.87v-6.07h6.27v7.86h4.87v-12.73h-22.36ZM69.34,49.16c-3.44,0-6.24-2.8-6.24-6.25s2.8-6.24,6.24-6.24,6.24,2.8,6.24,6.24-2.8,6.25-6.24,6.25Z"/>
        </g>
      </g>
      <circle class="cls-1" cx="154.29" cy="121.41" r="6.28"/>
      <circle class="cls-1" cx="6.28" cy="6.28" r="6.28"/>
    </g>
  </g>
</svg>