<?xml version="1.0" encoding="UTF-8"?>
<svg id="Layer_3" data-name="Layer 3" xmlns="http://www.w3.org/2000/svg" xmlns:xlink="http://www.w3.org/1999/xlink" viewBox="0 0 160.57 127.69">
  <defs>
    <style>
      .cls-1 {
        fill: none;
      }

      .cls-2 {
        fill: #e62c27;
      }

      .cls-3 {
        fill: #fff;
      }

      .cls-4 {
        fill: #1a1a1a;
      }
    </style>
    <symbol id="Full_Circle-Stacked" data-name="Full Circle-Stacked" viewBox="0 0 138 109.76">
      <g>
        <g>
          <g>
            <polygon class="cls-4" points="15.31 82.14 15.31 88.21 22.76 88.21 22.76 92.37 15.31 92.37 15.31 98.45 10.8 98.45 10.8 77.97 24.54 77.97 24.54 82.14 15.31 82.14"/>
            <path class="cls-4" d="M37.18,77.97h-3.73l-8.85,20.48h4.98l1.91-4.95h7.52l1.98,4.95h5.09l-8.9-20.48ZM33.08,89.33l2.1-5.4,2.16,5.4h-4.26Z"/>
            <path class="cls-4" d="M65,95.41c-.87,1.21-1.97,2.11-3.3,2.68-1.33.58-2.7.87-4.11.87-1.6,0-3.08-.25-4.43-.75-1.35-.5-2.51-1.22-3.5-2.15-.99-.94-1.75-2.06-2.3-3.4-.56-1.33-.83-2.81-.83-4.45s.28-3.12.83-4.46c.55-1.33,1.31-2.46,2.3-3.4.98-.93,2.15-1.65,3.5-2.15,1.35-.5,2.82-.75,4.43-.75.58,0,1.19.05,1.81.16.63.1,1.24.27,1.85.5.6.23,1.19.54,1.75.93.56.38,1.06.85,1.5,1.41l-3.46,2.84c-.45-.54-.99-.96-1.64-1.24s-1.39-.44-2.24-.44-1.64.17-2.36.49c-.73.33-1.36.79-1.88,1.38-.54.59-.95,1.29-1.24,2.1-.3.81-.45,1.68-.45,2.63s.14,1.84.45,2.65c.29.8.71,1.49,1.23,2.08.52.59,1.13,1.05,1.83,1.38.71.33,1.46.5,2.27.5.92,0,1.75-.2,2.46-.58.71-.39,1.3-.93,1.77-1.62l3.76,2.8Z"/>
            <polygon class="cls-4" points="83.06 77.97 83.06 81.97 77.21 81.97 77.21 98.45 72.7 98.45 72.7 81.97 66.86 81.97 66.86 77.97 83.06 77.97"/>
            <path class="cls-4" d="M105.6,83.76c-.55-1.33-1.32-2.46-2.3-3.4-.99-.93-2.15-1.65-3.5-2.15-1.35-.5-2.83-.75-4.42-.75s-3.08.25-4.43.75c-1.34.5-2.51,1.22-3.5,2.15-.98.94-1.75,2.07-2.3,3.4-.55,1.34-.82,2.82-.82,4.46s.27,3.12.82,4.45c.55,1.34,1.32,2.46,2.3,3.4s2.15,1.66,3.5,2.15c1.35.5,2.83.75,4.43.75s3.07-.25,4.42-.75c1.35-.5,2.51-1.22,3.5-2.15.98-.94,1.75-2.06,2.3-3.4.55-1.33.82-2.81.82-4.45s-.27-3.12-.82-4.46ZM101.29,90.86c-.3.8-.73,1.49-1.29,2.08-.56.59-1.23,1.05-2.01,1.38-.78.33-1.66.5-2.61.5s-1.84-.16-2.63-.5c-.78-.33-1.45-.79-2-1.38-.56-.58-1-1.28-1.29-2.08-.3-.81-.45-1.68-.45-2.65s.15-1.83.45-2.63c.29-.81.73-1.51,1.29-2.1.56-.58,1.22-1.04,2-1.38.79-.32,1.66-.49,2.63-.49s1.83.17,2.61.49c.78.33,1.45.79,2.01,1.38.56.59.99,1.29,1.29,2.1.29.81.45,1.68.45,2.63s-.15,1.84-.45,2.65Z"/>
            <path class="cls-4" d="M122.89,91.28c2.03-1.27,3.39-3.54,3.39-6.1,0-3.97-3.23-7.2-7.2-7.2h-9.16s0,20.47,0,20.47h4.52v-6.07h4.19l3.18,6.08h5.41l-4.32-7.17ZM118.37,88.56h-1.28s-2.66,0-2.66,0v-6.76h3.94c1.87,0,3.39,1.51,3.39,3.39s-1.52,3.39-3.39,3.39Z"/>
          </g>
          <g>
            <ellipse class="cls-2" cx="69" cy="36.89" rx="26.1" ry="26.09"/>
            <path class="cls-3" d="M68.74,34.15c-1.18-3.93-4.83-6.81-9.15-6.81-5.27,0-9.56,4.29-9.56,9.55s4.29,9.55,9.56,9.55c4.78,0,8.74-3.52,9.44-8.11h5.17v5.21h4.19v-5.21h5.39v6.76h4.19v-10.94h-19.22ZM59.6,42.26c-2.96,0-5.37-2.41-5.37-5.37s2.41-5.37,5.37-5.37,5.37,2.41,5.37,5.37-2.41,5.37-5.37,5.37Z"/>
          </g>
        </g>
        <circle class="cls-1" cx="132.61" cy="104.36" r="5.4"/>
        <circle class="cls-1" cx="5.4" cy="5.4" r="5.4"/>
      </g>
    </symbol>
  </defs>
  <g id="GFX">
    <use width="138" height="109.76" transform="scale(1.16)" xlink:href="#Full_Circle-Stacked"/>
  </g>
</svg>