<?xml version="1.0" encoding="UTF-8"?>
<svg id="Layer_3" data-name="Layer 3" xmlns="http://www.w3.org/2000/svg" xmlns:xlink="http://www.w3.org/1999/xlink" viewBox="0 0 169.58 109.2">
  <defs>
    <style>
      .cls-1 {
        fill: none;
      }

      .cls-2 {
        fill: #e62c27;
      }

      .cls-3 {
        fill: #1a1a1a;
      }
    </style>
    <symbol id="Full-Stacked" viewBox="0 0 222.52 143.34">
      <g>
        <g>
          <path class="cls-2" d="M110.73,36.55c-2.46-8.2-10.07-14.18-19.06-14.18-10.98,0-19.91,8.93-19.91,19.9s8.94,19.9,19.91,19.9c9.95,0,18.22-7.34,19.66-16.89h10.77v10.86h8.72v-10.86h11.22v14.08h8.72v-22.8h-40.04ZM91.66,53.45c-6.17,0-11.18-5.01-11.18-11.19s5.01-11.18,11.18-11.18,11.18,5.02,11.18,11.18-5.01,11.19-11.18,11.19Z"/>
          <g>
            <polygon class="cls-3" points="29.25 95.28 29.25 104.55 40.63 104.55 40.63 110.91 29.25 110.91 29.25 120.18 22.36 120.18 22.36 88.92 43.35 88.92 43.35 95.28 29.25 95.28"/>
            <path class="cls-3" d="M62.64,88.92h-5.7l-13.51,31.27h7.59l2.92-7.56h11.49l3.03,7.56h7.78l-13.61-31.27ZM56.4,106.27l3.19-8.25,3.31,8.25h-6.5Z"/>
            <path class="cls-3" d="M105.14,115.55c-1.33,1.85-3,3.23-5.03,4.1-2.03.89-4.12,1.33-6.27,1.33-2.45,0-4.7-.38-6.76-1.15-2.06-.77-3.85-1.86-5.34-3.29-1.5-1.43-2.67-3.15-3.51-5.19-.84-2.03-1.27-4.3-1.27-6.8s.42-4.77,1.27-6.8c.84-2.03,2.01-3.76,3.51-5.19,1.5-1.43,3.29-2.52,5.34-3.29,2.06-.77,4.31-1.15,6.76-1.15.88,0,1.81.08,2.76.24.96.16,1.9.42,2.83.78.92.35,1.82.82,2.67,1.41.85.59,1.62,1.31,2.3,2.16l-5.3,4.33c-.68-.82-1.51-1.46-2.5-1.9-.98-.44-2.12-.67-3.42-.67s-2.5.26-3.6.75c-1.1.51-2.07,1.2-2.87,2.1-.81.9-1.44,1.97-1.9,3.21-.46,1.23-.68,2.57-.68,4.02s.22,2.82.68,4.04c.46,1.22,1.08,2.28,1.88,3.17.79.9,1.72,1.6,2.8,2.1,1.08.5,2.23.75,3.47.75,1.41,0,2.67-.3,3.75-.89,1.09-.59,1.99-1.41,2.7-2.47l5.74,4.28Z"/>
            <polygon class="cls-3" points="132.73 88.92 132.73 95.01 123.8 95.01 123.8 120.18 116.91 120.18 116.91 95.01 107.99 95.01 107.99 88.92 132.73 88.92"/>
            <path class="cls-3" d="M167.16,97.75c-.84-2.03-2.01-3.76-3.51-5.19-1.5-1.43-3.29-2.52-5.34-3.29-2.07-.77-4.32-1.15-6.76-1.15s-4.7.38-6.76,1.15c-2.06.77-3.84,1.86-5.34,3.29-1.5,1.43-2.67,3.16-3.51,5.19-.84,2.03-1.26,4.3-1.26,6.8s.42,4.76,1.26,6.8c.84,2.03,2.01,3.76,3.51,5.19,1.5,1.43,3.29,2.53,5.34,3.29,2.06.77,4.32,1.15,6.76,1.15s4.69-.38,6.76-1.15c2.06-.77,3.84-1.86,5.34-3.29,1.5-1.43,2.67-3.15,3.51-5.19.84-2.03,1.26-4.3,1.26-6.8s-.42-4.77-1.26-6.8ZM160.58,108.59c-.46,1.22-1.12,2.28-1.97,3.17-.86.9-1.88,1.6-3.07,2.1-1.19.5-2.53.75-3.99.75s-2.81-.25-4.01-.75c-1.19-.5-2.22-1.2-3.06-2.1-.86-.89-1.52-1.95-1.97-3.17-.46-1.22-.69-2.57-.69-4.04s.23-2.78.69-4.02c.45-1.24,1.11-2.31,1.97-3.21.84-.9,1.87-1.59,3.06-2.1,1.19-.49,2.53-.75,4.01-.75s2.8.26,3.99.75c1.19.51,2.22,1.2,3.07,2.1.85.9,1.5,1.97,1.97,3.21.45,1.23.68,2.57.68,4.02s-.23,2.82-.68,4.04Z"/>
            <path class="cls-3" d="M193.56,109.23c3.1-1.94,5.17-5.39,5.17-9.32,0-6.07-4.93-11-11-11h-13.99s0,31.26,0,31.26h6.89v-9.27h6.4l4.86,9.28h8.26l-6.59-10.95ZM180.64,105.07v-10.33h6.02c2.86,0,5.17,2.32,5.17,5.17s-2.32,5.17-5.17,5.17h-1.96s-4.06,0-4.06,0Z"/>
          </g>
        </g>
        <circle class="cls-1" cx="11.18" cy="11.18" r="11.18"/>
        <circle class="cls-1" cx="211.34" cy="132.16" r="11.18"/>
      </g>
    </symbol>
  </defs>
  <g id="GFX">
    <use width="222.52" height="143.34" transform="scale(.76)" xlink:href="#Full-Stacked"/>
  </g>
</svg>