<?xml version="1.0" encoding="UTF-8" standalone="no"?>
<!-- Created with Inkscape (http://www.inkscape.org/) -->

<svg
   version="1.1"
   id="svg1"
   width="592"
   height="598"
   viewBox="0 0 592 598"
   sodipodi:docname="FACT0RN_LOGO_WHITE_FILLED.svg"
   inkscape:version="1.3.2 (091e20e, 2023-11-25, custom)"
   xmlns:inkscape="http://www.inkscape.org/namespaces/inkscape"
   xmlns:sodipodi="http://sodipodi.sourceforge.net/DTD/sodipodi-0.dtd"
   xmlns="http://www.w3.org/2000/svg"
   xmlns:svg="http://www.w3.org/2000/svg">
  <defs
     id="defs1" />
  <sodipodi:namedview
     id="namedview1"
     pagecolor="#ffffff"
     bordercolor="#000000"
     borderopacity="0.25"
     inkscape:showpageshadow="true"
     inkscape:pageopacity="0.0"
     inkscape:pagecheckerboard="false"
     inkscape:deskcolor="#d1d1d1"
     showborder="true"
     borderlayer="true"
     showguides="true"
     shape-rendering="auto"
     inkscape:zoom="1"
     inkscape:cx="143"
     inkscape:cy="221.5"
     inkscape:window-width="2560"
     inkscape:window-height="1351"
     inkscape:window-x="2551"
     inkscape:window-y="-9"
     inkscape:window-maximized="1"
     inkscape:current-layer="g1" />
  <g
     inkscape:groupmode="layer"
     inkscape:label="Image"
     id="g1">
    <path
       style="fill:#eeeeee;stroke-width:2.29157;fill-opacity:1"
       d="M 256.40624,595.6089 C 188.33789,586.86124 117.07624,548.20623 72.496177,495.84914 27.825576,443.38573 3.6080718,382.24146 0.41339087,313.85483 -2.0700221,260.69398 6.5685998,216.14205 28.147136,170.82355 44.575268,136.32177 60.247652,113.84475 86.382927,87.302965 142.99352,29.811793 214.6902,0 296.34459,0 c 81.71608,0 152.8629,29.560867 210.08024,87.286444 42.02683,42.400156 70.74597,96.646526 82.29915,155.451616 4.72007,24.02489 4.2441,91.60585 -0.81129,115.19029 -24.25341,113.14714 -106.38473,201.1913 -214.4648,229.90466 -37.5212,9.96816 -78.69661,12.70374 -117.04165,7.77589 z M 132.02677,400.31047 v -32.26091 l 9.69931,5.12814 c 18.61246,9.84066 46.23218,5.26856 60.33644,-9.98795 12.88685,-13.93963 18.03562,-40.97185 11.80039,-61.95479 -5.90091,-19.85786 -25.65264,-34.33631 -46.84215,-34.33631 -12.74422,0 -24.91426,3.4296 -31.00016,8.736 -3.6366,3.17084 -3.99383,3.03879 -3.99383,-1.47634 0,-4.34291 -1.27527,-4.95864 -10.26987,-4.95864 h -10.26986 v 80.15183 c 0,44.08354 0.68466,80.84217 1.52147,81.68585 0.83679,0.84371 5.45823,1.53403 10.26986,1.53403 h 8.7484 z m 15.41735,-44.98191 c -14.31667,-7.83151 -20.38265,-37.62211 -10.86529,-53.36053 12.59366,-20.82557 42.91848,-22.04336 55.78779,-2.24036 9.58225,14.74491 6.20164,40.57114 -6.81957,52.09816 -6.83105,6.04719 -9.81897,7.09942 -19.93736,7.0211 -6.54615,-0.0507 -14.72065,-1.63394 -18.16557,-3.51837 z M 266.1252,252.51735 265.535,127.68755 h -9.12876 -9.12878 l -0.5902,124.8298 -0.59019,124.82979 h 10.30917 10.30915 z m 43.91255,-0.70757 V 126.27243 l -9.69931,0.70756 -9.69932,0.70756 -0.5902,124.8298 -0.5902,124.82979 h 10.28952 10.28951 z m 55.3097,55.93181 0.60401,-69.60556 46.78493,69.5412 46.78494,69.5412 10.86818,0.0644 10.8682,0.0644 -0.59832,-85.71261 -0.59833,-85.71262 -9.66615,-0.70593 -9.66614,-0.70592 -0.60374,70.45255 -0.6037,70.45237 -47.0551,-69.7466 -47.05511,-69.74664 h -9.99969 -9.9997 l -0.59832,85.71262 -0.59832,85.71264 h 10.26417 10.26417 z"
       id="path1" />
  </g>
</svg>
