<?xml version="1.0" encoding="UTF-8" standalone="no"?>
<!-- Created with Inkscape (http://www.inkscape.org/) -->

<svg
   version="1.1"
   id="svg1"
   width="189.44"
   height="191.36"
   viewBox="0 0 189.44 191.36"
   sodipodi:docname="FACTORN_LOGO_WHITE_BORDER.svg"
   inkscape:version="1.3.2 (091e20e, 2023-11-25, custom)"
   xmlns:inkscape="http://www.inkscape.org/namespaces/inkscape"
   xmlns:sodipodi="http://sodipodi.sourceforge.net/DTD/sodipodi-0.dtd"
   xmlns="http://www.w3.org/2000/svg"
   xmlns:svg="http://www.w3.org/2000/svg">
  <defs
     id="defs1" />
  <sodipodi:namedview
     id="namedview1"
     pagecolor="#ffffff"
     bordercolor="#000000"
     borderopacity="0.25"
     inkscape:showpageshadow="false"
     inkscape:pageopacity="0.0"
     inkscape:pagecheckerboard="true"
     inkscape:deskcolor="#d1d1d1"
     inkscape:zoom="4.2014026"
     inkscape:cx="81.163371"
     inkscape:cy="90.326978"
     inkscape:window-width="2560"
     inkscape:window-height="1351"
     inkscape:window-x="2551"
     inkscape:window-y="-9"
     inkscape:window-maximized="1"
     inkscape:current-layer="g1"
     showborder="false"
     borderlayer="false"
     shape-rendering="auto" />
  <g
     inkscape:groupmode="layer"
     inkscape:label="Image"
     id="g1">
    <path
       style="fill:#eeeeee;stroke-width:2.29086;opacity:1;fill-opacity:1"
       d="M 80.766551,190.31238 C 60.147431,187.07596 41.821875,177.70637 27.432451,163.04347 -9.2526427,125.66115 -9.1278947,65.138945 27.710819,27.967646 39.573172,15.998204 55.047426,7.0768753 71.31172,2.8304961 82.672916,-0.13574013 98.678113,-0.85596155 110.30274,1.075943 c 38.88257,6.4618575 69.38456,36.087009 77.7513,75.516175 1.86983,8.81177 1.84253,29.486512 -0.0506,38.291532 -6.69618,31.14508 -27.19678,56.45058 -55.70698,68.76364 -15.95639,6.89125 -34.669006,9.31163 -51.529947,6.66509 z m 29.830089,-6.61976 c 33.47847,-6.00468 61.15443,-31.81496 70.04044,-65.31884 5.71254,-21.538672 3.33866,-43.316706 -6.96241,-63.872932 C 156.94845,21.122896 119.06787,1.3962895 82.407159,6.9725862 44.590963,12.724623 15.013566,41.314224 7.5442826,79.335187 5.8605488,87.906024 5.8992503,104.1726 7.6227346,112.30634 13.552053,140.2887 30.12824,162.51526 54.412921,175.0461 c 18.044406,9.31085 36.577633,12.16306 56.183739,8.64652 z M 35.761948,112.30634 V 86.165001 h 3.284044 c 2.383463,0 3.284043,0.293032 3.284043,1.068551 0,0.878611 0.551355,0.816042 3.101597,-0.352011 4.180382,-1.914669 11.34856,-1.93745 14.989721,-0.04763 6.133088,3.183191 8.910819,8.254265 8.910819,16.267709 0,6.02777 -1.257424,9.61932 -4.59814,13.13349 -3.113319,3.27496 -5.45133,4.42212 -10.117204,4.96409 -3.621228,0.42063 -5.828835,-0.0294 -11.009665,-2.2451 -1.180248,-0.50473 -1.277128,0.21379 -1.277128,9.47369 v 10.01986 h -3.284043 -3.284044 z m 24.155646,-0.2101 c 7.358675,-8.31014 1.845883,-21.921489 -8.321196,-20.545502 -9.700244,1.312843 -12.729478,14.721002 -4.839312,21.420062 2.20389,1.87121 2.849888,2.0382 6.775803,1.75166 3.743787,-0.27324 4.620467,-0.63384 6.384705,-2.62622 z M 78.81941,80.642185 V 40.509711 h 3.284043 3.284044 V 80.642185 120.77466 H 82.103453 78.81941 Z m 13.865962,0 V 40.509711 h 3.284043 3.284044 V 80.642185 120.77466 H 95.969415 92.685372 Z M 110.20027,93.16057 V 65.546483 l 3.46649,0.03199 3.46649,0.03176 14.96064,22.243494 14.96065,22.243483 0.19316,-22.275355 0.19317,-22.275363 h 3.27332 3.27335 v 27.614086 27.614092 h -3.52896 -3.52895 L 132.39635,99.088901 c -7.9933,-11.927146 -14.77959,-21.702532 -15.08063,-21.723083 -0.30104,-0.02072 -0.54734,9.738063 -0.54734,21.685758 v 21.723084 h -3.28404 -3.28405 z"
       id="path1" />
  </g>
</svg>
